<svg aria-hidden="true" style="position: absolute; width: 0; height: 0; overflow: hidden;" version="1.1" xmlns="http://www.w3.org/2000/svg" xmlns:xlink="http://www.w3.org/1999/xlink">
<defs>
<symbol id="icon-telegram" viewBox="0 0 32 32">
<path d="M23.689 8.982l-15.748 5.793c-1.075 0.412-1.069 0.984-0.197 1.239l4.043 1.203 9.354-5.63c0.442-0.257 0.846-0.119 0.514 0.163l-7.579 6.525-0.279 3.975c0.409 0 0.589-0.179 0.818-0.39l1.964-1.822 4.085 2.878c0.753 0.396 1.294 0.192 1.482-0.665l2.681-12.055c0.274-1.050-0.42-1.525-1.139-1.215z"></path>
</symbol>
<symbol id="icon-vector" viewBox="0 0 34 32">
<path fill="#fff" style="fill: var(--color1, #fff)" d="M26.002 32h-22c-1.061 0-2.078-0.421-2.828-1.172s-1.172-1.768-1.172-2.828v-22c0-1.061 0.421-2.078 1.172-2.828s1.768-1.172 2.828-1.172h8v4h-8v22h22v-8h4v8c0 1.061-0.421 2.078-1.172 2.828s-1.768 1.172-2.828 1.172zM15.402 19.414l-2.82-2.828 12.586-12.586h-7.166v-4h14v14h-4v-7.17l-12.6 12.584z"></path>
</symbol>
<symbol id="icon-polygon" viewBox="0 0 26 32">
<path fill="#fff" style="fill: var(--color1, #fff)" d="M25.6 16l-25.6 16v-32l25.6 16z"></path>
</symbol>
<symbol id="icon-youtube" viewBox="0 0 32 32">
<path d="M28.264 10.142c-0.145-0.517-0.427-0.985-0.817-1.354-0.401-0.381-0.892-0.653-1.427-0.791-2.003-0.528-10.027-0.528-10.027-0.528-3.345-0.038-6.689 0.129-10.014 0.501-0.535 0.148-1.025 0.427-1.427 0.81-0.395 0.38-0.68 0.848-0.83 1.361-0.359 1.932-0.533 3.894-0.52 5.859-0.013 1.963 0.161 3.924 0.52 5.859 0.146 0.511 0.431 0.977 0.826 1.353s0.888 0.648 1.43 0.792c2.029 0.527 10.014 0.527 10.014 0.527 3.349 0.038 6.698-0.129 10.027-0.501 0.535-0.138 1.026-0.411 1.427-0.791 0.395-0.376 0.675-0.845 0.816-1.354 0.368-1.931 0.547-3.894 0.534-5.86 0.028-1.974-0.151-3.946-0.533-5.883v0.001zM13.443 19.651v-7.302l6.676 3.651-6.676 3.65z"></path>
</symbol>
<symbol id="icon-wk" viewBox="0 0 32 32">
<path d="M26.633 10.696c0.181 0.477-0.376 1.589-1.671 3.336-0.181 0.238-0.415 0.556-0.7 0.953-0.596 0.741-0.933 1.231-1.011 1.469-0.13 0.318-0.078 0.622 0.155 0.913 0.13 0.159 0.428 0.477 0.894 0.953h0.039v0.040c1.062 0.98 1.775 1.814 2.138 2.502l0.078 0.159 0.078 0.298v0.377l-0.272 0.298-0.661 0.139-2.837 0.079c-0.181 0.026-0.395 0-0.641-0.079s-0.434-0.159-0.564-0.238l-0.233-0.159c-0.233-0.159-0.492-0.397-0.777-0.715s-0.538-0.609-0.758-0.874c-0.22-0.265-0.447-0.483-0.68-0.655s-0.44-0.232-0.622-0.179c-0.026 0-0.058 0.013-0.097 0.040s-0.104 0.086-0.194 0.179c-0.091 0.093-0.168 0.205-0.233 0.338s-0.123 0.324-0.175 0.576c-0.052 0.252-0.078 0.549-0.078 0.893 0 0.106-0.013 0.205-0.039 0.298s-0.052 0.166-0.078 0.218l-0.039 0.040c-0.155 0.159-0.363 0.238-0.622 0.238h-1.244c-0.544 0.053-1.095 0-1.652-0.159s-1.043-0.364-1.458-0.616c-0.415-0.252-0.79-0.503-1.127-0.755s-0.596-0.47-0.777-0.655l-0.272-0.278c-0.078-0.053-0.181-0.159-0.311-0.318s-0.395-0.503-0.797-1.033c-0.402-0.529-0.797-1.099-1.185-1.708s-0.842-1.41-1.36-2.403c-0.518-0.993-0.998-2.019-1.438-3.078-0.052-0.132-0.078-0.238-0.078-0.318s0.013-0.146 0.039-0.199l0.039-0.040c0.104-0.159 0.311-0.238 0.622-0.238h3.071c0.078 0 0.155 0.020 0.233 0.060l0.194 0.099 0.039 0.040c0.13 0.079 0.22 0.199 0.272 0.357 0.155 0.371 0.33 0.761 0.525 1.172s0.343 0.721 0.447 0.933l0.155 0.318c0.233 0.45 0.447 0.841 0.641 1.172s0.369 0.589 0.525 0.774 0.311 0.331 0.466 0.437c0.155 0.106 0.285 0.159 0.389 0.159s0.207-0.013 0.311-0.040l0.039-0.060 0.136-0.258 0.155-0.516 0.097-0.913v-1.43c-0.026-0.291-0.065-0.563-0.117-0.814s-0.104-0.43-0.156-0.536l-0.039-0.119c-0.181-0.265-0.505-0.437-0.972-0.516-0.078 0-0.052-0.093 0.078-0.278 0.13-0.132 0.272-0.238 0.428-0.318 0.389-0.212 1.27-0.304 2.643-0.278 0.596 0 1.101 0.053 1.516 0.159 0.13 0.027 0.246 0.073 0.35 0.139s0.181 0.159 0.233 0.278c0.052 0.119 0.091 0.238 0.117 0.357s0.039 0.291 0.039 0.516v0.616c-0.026 0.212-0.039 0.477-0.039 0.794v0.953c0 0.079-0.006 0.238-0.019 0.477s-0.019 0.424-0.019 0.556c0 0.132 0.013 0.285 0.039 0.457s0.071 0.318 0.136 0.437c0.065 0.119 0.149 0.205 0.253 0.258 0.052 0.027 0.11 0.046 0.175 0.060s0.162-0.027 0.292-0.119c0.13-0.093 0.272-0.225 0.428-0.397s0.35-0.43 0.583-0.774c0.233-0.344 0.479-0.741 0.738-1.191 0.441-0.794 0.842-1.655 1.205-2.581 0.026-0.053 0.058-0.113 0.097-0.179s0.084-0.112 0.136-0.139h0.039l0.039-0.040 0.155-0.040h0.233l3.187-0.040c0.285-0.026 0.525-0.013 0.719 0.040s0.304 0.119 0.33 0.199l0.078 0.119z"></path>
</symbol>
<symbol id="icon-logo" viewBox="0 0 106 32">
<path fill="#fff" style="fill: var(--color1, #fff)" d="M0 10.306l1.54-7.827h16.192l-1.436 7.827h-3.9l-2.668 13.571c-0.035 0.132-0.046 0.275-0.046 0.429 0 0.337 0.068 0.979 0.57 0.979 0.764 0 1.505-0.52 2.144-0.826l-1.768 7c-1.3 0.296-2.611 0.541-3.968 0.541-3.261 0-6.42-0.908-6.42-4.275 0-0.072 0-0.143 0.023-0.215l3.387-17.203-3.65-0.001z"></path>
<path fill="#fff" style="fill: var(--color1, #fff)" d="M36.649 16.786l-13.136 7.704c0.821 0.735 1.711 1.387 2.93 1.387 3.33 0 5.804-2.806 7.857-4.796l-1.562 7.929c-2.896 1.857-6.545 2.897-10.115 2.897-5.713 0-9.624-4.234-9.624-9.153 0-6.725 7.446-13.602 15.029-13.602 2.497 0 4.869 1.082 6.466 2.776 1.369 1.46 2.041 2.99 2.156 4.858zM34.357 31.459l4.333-22.041h8.723c-0.034 0.408-0.068 0.817-0.068 1.214 0 0.378 0.103 0.735 0.217 1.092 1.414-1.408 3.398-2.582 5.576-2.582 3.136 0 5.964 2.041 5.964 4.949 0 0.357-0.035 0.714-0.102 1.061l-3.215 16.306h-8.928l2.714-13.745c0.023-0.133 0.034-0.256 0.034-0.388 0-0.796-0.741-1.378-1.619-1.378-0.957 0-1.585 0.694-1.744 1.49l-2.885 14.021h-8.998zM56.822 31.459l4.345-22.041h8.734v0.51c0 0.735 0.15 1.337 0.605 1.949 0.513-0.582 1.083-1.133 1.802-1.52 1.574-0.827 3.569-1.214 5.381-1.214 0.73 0 1.358 0.184 2.019 0.459 0.547 1.418 1.437 2.51 2.542 3.622l-3.591 18.235h-9.066l2.68-13.582c0.035-0.184 0.045-0.368 0.045-0.551 0-0.787-0.456-1.491-1.437-1.491-1.003 0-1.653 0.806-1.814 1.623l-2.771 14-9.475-0zM79.741 31.459l3.466-17.612c1.551 1.173 2.953 1.734 5.007 1.734 1.197 0 2.349-0.245 3.5-0.52l-3.226 16.398h-8.746z"></path>
<path fill="#fff" style="fill: var(--color1, #fff)" d="M83.857 13.224c0.879-0.225 1.757-0.439 2.68-0.439 1.631 0 3.114 0.755 4.515 1.429-0.89 0.255-1.814 0.52-2.747 0.52-1.677 0.001-3.114-0.642-4.449-1.51zM81.599 11.092c-0.752-1.163-1.448-2.367-1.448-3.745 0-2.010 1.197-3.561 2.657-4.979 2.611 1.755 5.144 2.796 8.472 2.796 1.552 0 3.045-0.377 4.516-0.796 0.536 0.949 1.060 1.949 1.060 3.031 0 2.051-1.174 3.734-2.691 5.194-2.246-1.336-4.641-2.489-7.423-2.489-1.779-0.001-3.478 0.489-5.144 0.989zM85.51 0.735c1.050-0.388 2.099-0.735 3.239-0.735 2.018 0 3.661 0.541 5.155 1.755-0.913 0.408-1.837 0.755-2.874 0.755-2.063 0-3.888-0.673-5.519-1.775zM89.616 30.643l1.493-7.531c0.593 0.572 2.133 2.204 3.17 2.204 0.787 0 0.924-1.133 0.924-1.633 0-0.766-0.194-1.47-0.719-2.102-1.152-1.377-2.634-2.602-2.634-4.448 0-0.756 0.182-1.5 0.377-2.225 2.633-1.030 4.082-2.714 4.891-5.143h9.317l-1.311 6.674c-0.639-0.603-1.391-1.306-2.383-1.306-0.879 0-1.528 0.868-1.528 1.582 0 1.102 0.616 2.337 1.413 3.163l1.448 1.491c0.696 0.714 1.027 1.663 1.027 2.601 0 1.766-1.129 3.449-2.417 4.715-2.191 2.143-4.403 2.826-7.664 2.826-1.869-0-3.625-0.368-5.404-0.867z"></path>
<path fill="#fff" style="fill: var(--color1, #fff)" d="M21.552 20.939c2.292-0.593 5.781-3.429 6.283-5.521-0.388-0.081-0.787-0.163-1.186-0.163-2.315 0-5.245 2.398-5.245 4.5 0 0.398 0.068 0.797 0.148 1.185z"></path>
</symbol>
</defs>
</svg>
